<svg width="72" height="61" viewBox="0 0 72 61" fill="none" xmlns="http://www.w3.org/2000/svg">
<path d="M37.1871 21.9144C35.0797 20.0706 34.9463 18.3623 36.6536 16.2473C36.8937 15.949 37.1604 15.6507 37.3738 15.3254C38.9478 13.0477 38.4142 10.77 36.0133 9.52265C35.8266 9.41419 35.6132 9.30573 35.3731 9.19727C35.3998 9.33284 35.3998 9.41419 35.4265 9.46842C36.2268 11.0411 36.0667 12.4782 34.9463 13.8069C34.7595 14.0238 34.5995 14.2679 34.4661 14.5119C32.4387 17.7929 34.4394 21.3179 37.1871 21.9144Z" fill="#C99E71"/>
<path d="M33.0256 19.1216C31.7985 17.7929 31.7718 16.627 32.8655 15.217C33.0256 15.0272 33.1856 14.8102 33.319 14.5933C34.3327 13.0749 34.066 11.475 32.6521 10.5531C32.5454 10.4718 32.412 10.3904 32.2786 10.3091C32.2786 10.3904 32.2786 10.4447 32.3053 10.4989C32.7588 11.5835 32.5987 12.5868 31.9052 13.4816C31.7985 13.6172 31.6917 13.7799 31.585 13.9425C30.3046 16.166 31.3983 18.6606 33.0256 19.1216Z" fill="#C99E71"/>
<path d="M38.2008 20.3146C37.854 19.7181 37.6939 19.0944 38.0407 18.4436C38.2008 18.1454 38.4142 17.8742 38.6009 17.6302C39.0278 17.0608 39.1078 16.4642 38.841 15.8677C38.4142 16.4642 38.0141 17.0336 37.5872 17.6302C36.7869 18.7148 36.947 19.6096 38.2008 20.3146Z" fill="#C99E71"/>
<path d="M7.49611 37.262V35.8249L7.41608 35.7978C6.88255 35.5809 6.3757 35.4453 5.86884 35.4453C5.1219 35.4453 4.50834 35.7165 4.08152 36.2588C3.62801 36.8011 3.4146 37.5332 3.38792 38.4551C3.38792 39.377 3.60134 40.1363 4.02816 40.6515C4.45499 41.1938 5.06855 41.4649 5.81549 41.4921H5.84217C6.3757 41.4921 6.88255 41.3565 7.38941 41.0853L7.46944 41.0582V40.1905L7.2827 40.299C6.77585 40.5701 6.29567 40.6786 5.86884 40.6786C5.36199 40.6786 4.98852 40.4888 4.72175 40.1363C4.45499 39.7838 4.29493 39.2144 4.3216 38.428C4.3216 37.6959 4.45499 37.1536 4.74843 36.8011C5.01519 36.4486 5.38867 36.2859 5.89552 36.2859C6.21564 36.2859 6.50908 36.3401 6.72249 36.4215V37.2892L7.49611 37.262Z" fill="#C99E71"/>
<path d="M11.8177 41.546C12.5113 41.546 13.0715 41.2748 13.4717 40.7325C13.8718 40.1902 14.0852 39.431 14.0852 38.4819C14.0852 37.5871 13.8985 36.855 13.525 36.3398C13.1515 35.7975 12.618 35.5264 11.9244 35.5264C11.2308 35.5264 10.6706 35.7975 10.2438 36.3398C9.84365 36.8821 9.63024 37.6143 9.63024 38.5362C9.63024 39.4581 9.81698 40.2173 10.2171 40.7596C10.6173 41.2477 11.1508 41.5189 11.8177 41.546ZM10.9107 36.8279C11.1508 36.5025 11.4709 36.3127 11.8977 36.3398C12.3246 36.3398 12.6447 36.5025 12.8581 36.855C13.0982 37.2075 13.2049 37.7498 13.2049 38.4819C13.2049 39.2412 13.0715 39.8106 12.8314 40.1631C12.5913 40.5156 12.2712 40.7054 11.8711 40.7054C11.4442 40.7054 11.1508 40.5156 10.9107 40.1631C10.6706 39.7835 10.5639 39.2141 10.5639 38.4819C10.5372 37.7227 10.6706 37.1533 10.9107 36.8279Z" fill="#C99E71"/>
<path d="M16.2193 40.6782V41.4646L18.4068 41.4917V40.7054H17.7132V38.9971H18.5669V39.6207H19.3138L19.3405 37.7227H18.5669V38.2378L17.7132 38.2107L17.7399 36.4211H19.2604V37.1532H20.0341L20.0607 35.6619L16.2727 35.6348V36.4211H16.8596L16.8329 40.6782H16.2193Z" fill="#C99E71"/>
<path d="M21.7947 40.7327V41.519H23.9555L23.9822 40.7327H23.2619L23.2886 39.0515H24.1156V39.6752H24.8892V37.75H24.1423V38.2652H23.2886V36.4756H24.8359L24.8092 37.2077H25.6095L25.6361 35.7163L21.8214 35.6621V36.4485H22.435L22.4083 40.7327H21.7947Z" fill="#C99E71"/>
<path d="M27.3701 40.7593L27.3434 41.5456L31.2382 41.5728L31.2649 40.0814H30.4646V40.7864H28.8373V38.9968H29.5843V39.6204H30.3579V37.6952H29.611V38.2104H28.864V36.5022L30.3846 36.5293V37.2343L31.1849 37.2614V35.7429L27.3968 35.7158V36.5022H28.0104L27.957 40.7864L27.3701 40.7593Z" fill="#C99E71"/>
<path d="M33.239 40.814L33.2123 41.6003L37.1071 41.6274L37.1337 40.1361L36.3334 40.109V40.8411L34.7062 40.814V39.0244H35.4531V39.648H36.2267V37.7499H35.4798V38.2651L34.7062 38.238L34.7329 36.5569H36.2534V37.289H37.0537V35.7976L33.2656 35.7705V36.5297L33.8792 36.5569L33.8259 40.814H33.239Z" fill="#C99E71"/>
<path d="M48.7914 37.4788V36.123L48.7114 36.0959C48.2845 35.879 47.831 35.7705 47.3242 35.7705C46.7373 35.7705 46.2838 35.9061 45.937 36.2044C45.5902 36.5026 45.4035 36.8822 45.4035 37.3703C45.4035 37.6415 45.4568 37.8855 45.5369 38.0753C45.6436 38.2651 45.7503 38.4278 45.9103 38.5634C46.0704 38.699 46.2304 38.8074 46.4172 38.8888C46.6039 38.9701 46.7907 39.0515 46.9507 39.1057C47.1375 39.187 47.2975 39.2684 47.4576 39.3226C47.591 39.404 47.6977 39.4582 47.8044 39.5396C47.8844 39.6209 47.9644 39.7022 47.9911 39.8107C48.0445 39.8921 48.0711 40.0276 48.0711 40.1632C48.0711 40.4344 47.9911 40.6242 47.8044 40.7869C47.6176 40.9496 47.3509 41.0038 47.0307 41.0038C46.7106 41.0038 46.4439 40.9767 46.2304 40.8953V40.0819H45.4302V41.4647L45.5102 41.4919C45.9637 41.6817 46.4439 41.7901 46.9774 41.7901H47.0041C47.591 41.7901 48.0711 41.6274 48.4179 41.3292C48.7914 41.0309 48.9781 40.5971 48.9781 40.0819C48.9781 39.7836 48.9248 39.5396 48.8448 39.3497C48.7647 39.1599 48.6313 38.9972 48.4713 38.8617C48.3379 38.7261 48.1512 38.6176 47.9644 38.5363C47.7777 38.4549 47.591 38.3736 47.4042 38.2922C47.2175 38.2109 47.0574 38.1567 46.8974 38.0753C46.764 38.0211 46.6306 37.9397 46.5506 37.8855C46.4705 37.8042 46.3905 37.7228 46.3372 37.6415C46.2838 37.5601 46.2571 37.4517 46.2571 37.3161C46.2571 37.0992 46.3372 36.9365 46.4972 36.7738C46.6573 36.6111 46.924 36.5297 47.2442 36.5569C47.5109 36.5569 47.751 36.6111 47.9377 36.6653V37.4517L48.7914 37.4788Z" fill="#C99E71"/>
<path d="M50.9522 40.9497V41.7361L53.033 41.7632V40.9768H52.4194L52.4461 39.1601L54.9004 39.1872V40.9768H54.2868V41.7632H56.3409L56.3676 41.0039H55.754L55.7807 36.7197H56.3942V35.9334H54.3135V36.6926L54.927 36.7197L54.9004 38.4009L52.4461 38.3737V36.6926H53.0597V35.9062H51.0056L50.9789 36.6926H51.5925L51.5658 40.9497H50.9522Z" fill="#C99E71"/>
<path d="M60.6892 41.9259C60.7158 41.9259 60.7158 41.9259 60.6892 41.9259C61.3827 41.9259 61.943 41.6547 62.3431 41.1124C62.7432 40.5701 62.9567 39.8109 62.9567 38.8618C62.9567 37.967 62.7699 37.2349 62.3965 36.7197C62.023 36.1774 61.4894 35.9062 60.7959 35.9062C60.1023 35.9062 59.5421 36.1774 59.1152 36.7197C58.7151 37.262 58.5017 37.9941 58.5017 38.9161C58.5017 39.838 58.6884 40.5972 59.0886 41.1395C59.4887 41.6276 60.0222 41.8988 60.6892 41.9259ZM59.7822 37.2078C60.0222 36.8824 60.3424 36.7197 60.7692 36.7197C61.196 36.7197 61.5161 36.8824 61.7295 37.2349C61.9696 37.5874 62.0763 38.1297 62.0763 38.8618C62.0763 39.6211 61.943 40.1905 61.7029 40.543C61.4628 40.8955 61.1427 41.0853 60.7425 41.0853C60.3157 41.0853 60.0222 40.8955 59.7822 40.543C59.5421 40.1634 59.4354 39.5939 59.4354 38.8618C59.4354 38.1026 59.5421 37.5332 59.7822 37.2078Z" fill="#C99E71"/>
<path d="M65.1175 41.0581V41.8445L67.305 41.8716V41.0852H66.6114V39.5939H66.9582C67.5984 39.5939 68.1053 39.4312 68.452 39.1329C68.7988 38.8075 68.9856 38.3466 68.9856 37.7229C68.9856 37.1806 68.8255 36.7739 68.5321 36.4756C68.2386 36.1773 67.7585 36.0418 67.1449 36.0418L65.1975 36.0146V36.801H65.8111L65.7844 41.0852L65.1175 41.0581ZM66.9848 38.8075H66.6114L66.638 36.801H67.0649C67.4383 36.801 67.7051 36.8823 67.8652 37.0179C68.0252 37.1535 68.1052 37.3975 68.1052 37.7771C68.1052 38.1568 67.9985 38.4008 67.8385 38.5635C67.5984 38.7262 67.3316 38.8075 66.9848 38.8075Z" fill="#C99E71"/>
<path d="M63.3034 32.3268C63.4368 32.2184 63.5435 32.1099 63.6769 32.0014C65.1175 30.6999 65.0908 30.0762 63.5435 28.8289C60.4491 26.3614 60.4491 26.3614 62.6632 23.0533C63.6769 21.5078 63.4368 20.5045 61.7029 19.9893C58.395 18.986 57.5413 19.3656 59.0886 14.6476C59.1152 14.5662 59.1686 14.4577 59.1953 14.3764C59.5421 13.102 59.1686 12.4783 57.8348 12.3156C57.0078 12.2072 56.1541 12.2885 55.3272 12.2343C53.5932 12.1529 53.193 11.692 53.1397 9.92947C53.1397 9.52274 53.1397 9.11601 53.1397 8.73639C53.1397 6.07908 52.7395 5.75369 50.2053 6.35023C46.7373 7.1637 46.7373 7.1637 45.4568 3.74715C44.6299 1.5508 44.2297 1.41522 42.309 2.68965C39.1879 4.72331 39.1879 4.72331 36.8136 1.79484C35.4265 0.0594524 34.8129 0.0594524 33.4524 1.84907C31.0248 5.02158 31.1582 4.91312 28.0371 2.74388C26.063 1.36099 25.5295 1.63215 24.7558 3.96408C23.8755 6.6485 23.5554 7.8687 20.4609 6.43158C20.2475 6.32312 19.9807 6.35023 19.7406 6.296C17.6866 5.80792 17.1797 6.10619 17.2064 8.2212C17.233 12.3427 16.7529 12.3156 13.0982 12.2885C11.1508 12.2885 10.6973 12.9664 11.2308 14.8102C12.3246 18.6606 12.3246 18.6606 8.61652 20.0164C6.88255 20.6401 6.56243 21.562 7.60282 23.0533C10.0037 26.5241 10.0571 26.4428 6.66914 28.9374C5.20193 30.022 5.20193 30.8626 6.58911 32.0014C6.74917 32.137 6.90923 32.2455 7.06928 32.3811H0V33.4928H71.8933V32.3811H63.3034V32.3268ZM11.7644 30.4016C11.791 17.3591 22.3016 6.75696 35.133 6.72985C48.0178 6.72985 58.5817 17.4676 58.5017 30.5914C58.5017 31.1609 58.475 31.7574 58.4216 32.3268H49.6984C52.3127 30.5101 53.5932 27.9341 52.5795 26.3343C52.0193 25.4395 50.8188 25.0599 49.3249 25.2497C49.3783 24.8701 49.4316 24.4905 49.4583 24.1108C49.5117 23.6499 49.3516 23.1889 49.0315 22.8364C48.7114 22.4839 48.2579 22.267 47.7777 22.267H23.502C23.0219 22.267 22.5684 22.4839 22.2482 22.8364C21.9281 23.1889 21.7947 23.6228 21.8214 24.1108C22.0882 27.2291 23.1819 30.0491 24.8359 32.3268H11.8444C11.791 31.7032 11.7644 31.0524 11.7644 30.4016ZM46.5773 32.1099C47.6443 30.5643 48.4713 28.8018 48.9781 26.958C49.9919 26.7139 50.8188 26.8495 51.1123 27.3105C51.3524 27.6901 51.2456 28.3137 50.8455 28.9916C50.392 29.7509 49.6184 30.5101 48.658 31.1337C47.9644 31.5947 47.2708 31.9201 46.5773 32.1099ZM9.81697 29.9135C10.1371 15.6779 21.5546 4.61485 35.4531 4.75042C49.3516 4.886 60.9826 16.871 60.3957 31.676C60.3957 31.893 60.369 32.1099 60.369 32.3268H59.302C59.3553 31.7303 59.382 31.1066 59.382 30.483C59.4087 16.9795 48.5246 5.88927 35.2664 5.86215C21.8481 5.83504 10.9374 16.8439 10.9107 30.4287C10.9107 31.0795 10.9374 31.7032 10.9907 32.3268H9.87032C9.81697 31.5405 9.81697 30.727 9.81697 29.9135Z" fill="#C99E71"/>
<path d="M0 45.4238H11.4176C10.6173 48.5692 10.8574 48.5963 14.5654 48.7048C16.6462 48.759 17.073 49.1928 17.1797 51.2536C17.3664 55.3752 17.3664 55.3752 21.2345 54.2363C22.9952 53.7211 23.6354 54.0194 24.3023 55.7277C24.5691 56.3784 24.7025 57.0563 24.9426 57.7071C25.4494 59.09 26.1697 59.3882 27.4502 58.6561C28.2238 58.2223 28.8907 57.6257 29.6376 57.1648C30.5713 56.5682 31.4517 56.4598 32.1986 57.5444C32.7321 58.3036 33.319 59.0629 33.9326 59.7679C34.7595 60.744 35.5332 60.744 36.3868 59.7679C36.947 59.1442 37.4005 58.4392 37.9341 57.7884C38.9478 56.5411 39.6413 56.4327 40.9485 57.3275C41.6421 57.7884 42.309 58.2765 43.0293 58.7104C44.123 59.4154 44.87 59.0629 45.2968 57.8427C45.5635 57.0834 45.9103 56.3513 46.1237 55.5921C46.4705 54.2363 47.2975 53.8025 48.5513 54.1007C49.3249 54.2905 50.0452 54.6159 50.7921 54.8329C52.3394 55.2938 53.1664 54.7244 53.2464 53.0703C53.2731 52.284 53.2731 51.4705 53.2731 50.6571C53.2464 49.4369 53.8866 48.8132 55.0337 48.7048C55.5139 48.6505 56.0208 48.7048 56.8477 48.7048C59.302 48.8946 60.0222 48.1082 58.9285 45.3967H72V44.2849H0V45.4238ZM53.2464 45.4238C48.9248 50.8198 42.3357 54.2634 35.053 54.155C27.797 54.155 21.2879 50.7384 17.0196 45.4238H53.2464ZM35.0263 56.1073C26.5165 56.1073 19.1004 51.8502 14.5387 45.3967H15.9259C20.3542 51.2536 27.3168 55.0227 35.1597 55.0227C42.9226 55.104 49.9118 51.2807 54.3401 45.3967H55.6206C50.9522 51.9315 43.3494 56.2429 35.0263 56.1073Z" fill="#C99E71"/>
</svg>
