<svg width="19" height="15" viewBox="0 0 19 15" fill="none" xmlns="http://www.w3.org/2000/svg">
<path d="M19 7.5C19 7.79837 18.8815 8.08452 18.6705 8.29549C18.4595 8.50647 18.1734 8.625 17.875 8.625H1.375C1.07663 8.625 0.790483 8.50647 0.579505 8.29549C0.368526 8.08452 0.25 7.79837 0.25 7.5C0.25 7.20163 0.368526 6.91548 0.579505 6.7045C0.790483 6.49353 1.07663 6.375 1.375 6.375H17.875C18.1734 6.375 18.4595 6.49353 18.6705 6.7045C18.8815 6.91548 19 7.20163 19 7.5ZM1.375 2.625H17.875C18.1734 2.625 18.4595 2.50647 18.6705 2.2955C18.8815 2.08452 19 1.79837 19 1.5C19 1.20163 18.8815 0.915483 18.6705 0.704505C18.4595 0.493526 18.1734 0.375 17.875 0.375H1.375C1.07663 0.375 0.790483 0.493526 0.579505 0.704505C0.368526 0.915483 0.25 1.20163 0.25 1.5C0.25 1.79837 0.368526 2.08452 0.579505 2.2955C0.790483 2.50647 1.07663 2.625 1.375 2.625ZM17.875 12.375H1.375C1.07663 12.375 0.790483 12.4935 0.579505 12.7045C0.368526 12.9155 0.25 13.2016 0.25 13.5C0.25 13.7984 0.368526 14.0845 0.579505 14.2955C0.790483 14.5065 1.07663 14.625 1.375 14.625H17.875C18.1734 14.625 18.4595 14.5065 18.6705 14.2955C18.8815 14.0845 19 13.7984 19 13.5C19 13.2016 18.8815 12.9155 18.6705 12.7045C18.4595 12.4935 18.1734 12.375 17.875 12.375Z" fill="white"/>
</svg>
