<svg width="30" height="31" viewBox="0 0 30 31" fill="none" xmlns="http://www.w3.org/2000/svg">
<path d="M7.5 2.99996L3.75 7.99996V25.5C3.75 26.163 4.01339 26.7989 4.48223 27.2677C4.95107 27.7366 5.58696 28 6.25 28H23.75C24.413 28 25.0489 27.7366 25.5178 27.2677C25.9866 26.7989 26.25 26.163 26.25 25.5V7.99996L22.5 2.99996H7.5Z" stroke="white" stroke-width="2" stroke-linecap="round" stroke-linejoin="round"/>
<path d="M3.75 8H26.25" stroke="white" stroke-width="2" stroke-linecap="round" stroke-linejoin="round"/>
<path d="M20 13C20 14.3261 19.4732 15.5979 18.5355 16.5356C17.5979 17.4733 16.3261 18 15 18C13.6739 18 12.4021 17.4733 11.4645 16.5356C10.5268 15.5979 10 14.3261 10 13" stroke="white" stroke-width="2" stroke-linecap="round" stroke-linejoin="round"/>
</svg>
